<svg viewBox="0 0 1000 1000" xmlns="http://www.w3.org/2000/svg"><title>Alluring Light Blue Mangoth</title><style type="text/css"> .m {fill: #F0CD09;} .b {stroke: #000000; stroke-width: 10; stroke-linejoin: round;}.b1{stroke: #000000; stroke-width: 4; stroke-linejoin: round;}.sh {fill-opacity: 0.1;} .c{fill:#09a0f0;} .bg{fill:Aliceblue}</style><rect width="1000" height="1000" class="bg"/><path class="cape8 c b" d="M53 227c0 0 170 563 537 241C704 341 878 403 885 349c1-26-66-184-414-125C232 264 53 160 53 227z" /><path class="mango m b" d="M551 355c0-163 21-147-78-146 -95 0-75-13-78 150 -80 50-141 75-150 169 -15 161 80 239 101 264 7 5 28 68 102 74C566 876 608 463 551 355z" /><path d="M709 496c-87-107-85-109-160-141 0 0-11 13-80 26 63 58-16 433 23 468 50 45 107-103 100-192 0-4 1-3 9-7 17-13 7-1 94-116C697 533 713 504 709 496zM662 510c-12 11-27 42-30 58 -14 20-23 38-38 43 -6 2-2 1-7-24 -9-59 13-95 25-133C637 488 670 500 662 510z" /><path class="hand3 m" d="M586 658c-9 7-19 12-28 21 -14 16-19 7-5-5 10-9 7-9-1-1 -3 3-17 21-18 9 4-9 14-15 19-25 -9-1-21 9-31 10 -12-5 13-15 26-19 -5-1-17 6-24 9 -4 2-8-3-4-6 3-4 48-19 35-23 -6-3-17-3-16-12 0-3 3-3 5-2 8 5 18 5 27 7C593 624 604 645 586 658z" /><g class="mouth"><path d="M504 309c-64 1-44-3-65 5C463 310 476 316 504 309z" /><path d="M497 331c-14-4-49-5-46 4C461 332 510 338 497 331z" /></g><path class="helmet0" d="M570 251L554 100l-66 51c-29-12-10-13-37-1l-67-50L371 251c23 74 26 85 26 85l74-47 79 47C550 336 554 318 570 251z" /><g class="visor4 m"><path d="M461 263c-41 5-42 6-63-31C427 238 462 222 461 263z" /><path d="M488 263c41 5 42 6 63-31C522 238 487 222 488 263z" /></g><g class="eyes2"><path d="M450 250c-9-14-19-16-30 1C420 257 452 259 450 250zM429 248c12 8 10-7 19 4C443 255 413 255 429 248z" /><path d="M534 251c-11-17-21-15-30-1C502 259 534 257 534 251zM507 252c8-11 7 5 19-4C541 255 511 255 507 252z" /></g><polygon class="sh" points="550 345 471 367 471 164 556 215 " /><path class="fastener5 c b1" d="M474 370c-22 3-57-14-99-19l10 55c0 0 74-21 74-21C385 506 364 497 364 497s32 16 64-29c18-22 38-65 46-78 9 8 28 20 46 47 18 24 34 65 37 61 0 0 5-4 10-6 5-3 9-4 9-4 -29-49-36-82-86-112 22-8 46 0 69 10l7-34C529 347 490 358 474 370z" /></svg>