<svg viewBox="0 0 1000 1000" xmlns="http://www.w3.org/2000/svg"><title>Awe-inspiring Orange Flatmango</title><style type="text/css"> .m {fill: #F0CD09;} .b {stroke: #000000; stroke-width: 10; stroke-linejoin: round;}.b1{stroke: #000000; stroke-width: 4; stroke-linejoin: round;}.sh {fill-opacity: 0.1;} .c{fill:#ffa500;} .bg{fill:Lightyellow}</style><rect width="1000" height="1000" class="bg"/><path class="cape0 c b" d="M906 730C808 629 408-76 134 769c54-167 489 35 672-5C871 752 912 737 906 730z" /><path class="mango m b" d="M551 355c0-163 21-147-78-146 -95 0-75-13-78 150 -80 50-141 75-150 169 -15 161 80 239 101 264 7 5 28 68 102 74C566 876 608 463 551 355z" /><path d="M709 496c-87-107-85-109-160-141 0 0-11 13-80 26 63 58-16 433 23 468 50 45 107-103 100-192 0-4 1-3 9-7 17-13 7-1 94-116C697 533 713 504 709 496zM662 510c-12 11-27 42-30 58 -14 20-23 38-38 43 -6 2-2 1-7-24 -9-59 13-95 25-133C637 488 670 500 662 510z" /><path class="hand3 m" d="M586 658c-9 7-19 12-28 21 -14 16-19 7-5-5 10-9 7-9-1-1 -3 3-17 21-18 9 4-9 14-15 19-25 -9-1-21 9-31 10 -12-5 13-15 26-19 -5-1-17 6-24 9 -4 2-8-3-4-6 3-4 48-19 35-23 -6-3-17-3-16-12 0-3 3-3 5-2 8 5 18 5 27 7C593 624 604 645 586 658z" /><g class="mouth"><path d="M504 309c-64 1-44-3-65 5C463 310 476 316 504 309z" /><path d="M497 331c-14-4-49-5-46 4C461 332 510 338 497 331z" /></g><path class="helmet7" d="M545 117c-6 37-20 36-74 35 -53 2-68 2-74-34 -25 53-16 153-7 211 114-57 45-60 165 0 1-8 5-51 6-99C562 189 558 145 545 117z" /><g class="visor4 m"><path d="M461 263c-41 5-42 6-63-31C427 238 462 222 461 263z" /><path d="M488 263c41 5 42 6 63-31C522 238 487 222 488 263z" /></g><g class="eyes4"><path d="M504 249c-2 9 30 7 30 1C523 233 513 235 504 249zM507 251c1 0 8-12 25 1C519 255 511 254 507 251z" /><path d="M420 251c0 6 32 8 30-1C441 236 431 234 420 251zM423 252c17-12 24 0 25 0C443 255 435 256 423 252z" /></g><polygon class="sh" points="550 345 471 367 471 164 556 215 " /><path class="fastener9 c b1" d="M557 506C455 494 524 441 473 401c-53 42 21 92-83 105 0 0 0-1 0-1 0-2 1-3 3-3 33-8 43-17 43-28 0-18-31-38-31-58 0-9 6-17 25-25-30 10-53 14-71 14-22 0-34-6-34-15 0-13 74-32 74-32s56 20 74 20c16 0 73-19 73-19s77 21 77 34c0 7-8 12-28 12-17 0-42-4-78-14 20 10 26 19 26 28 0 19-31 35-31 53 0 11 11 22 48 35H557z" /></svg>