<svg viewBox="0 0 1000 1000" xmlns="http://www.w3.org/2000/svg"><title>Awesome Purple Flatmango</title><style type="text/css"> .m {fill: #F0CD09;} .b {stroke: #000000; stroke-width: 10; stroke-linejoin: round;}.b1{stroke: #000000; stroke-width: 4; stroke-linejoin: round;}.sh {fill-opacity: 0.1;} .c{fill:#800080;} .bg{fill:White}</style><rect width="1000" height="1000" class="bg"/><path class="cape0 c b" d="M906 730C808 629 408-76 134 769c54-167 489 35 672-5C871 752 912 737 906 730z" /><path class="mango m b" d="M551 355c0-163 21-147-78-146 -95 0-75-13-78 150 -80 50-141 75-150 169 -15 161 80 239 101 264 7 5 28 68 102 74C566 876 608 463 551 355z" /><path d="M709 496c-87-107-85-109-160-141 0 0-11 13-80 26 63 58-16 433 23 468 50 45 107-103 100-192 0-4 1-3 9-7 17-13 7-1 94-116C697 533 713 504 709 496zM662 510c-12 11-27 42-30 58 -14 20-23 38-38 43 -6 2-2 1-7-24 -9-59 13-95 25-133C637 488 670 500 662 510z" /><path class="hand8 m" d="M530 621c-7 5-9 15-14 20 -15 15 5 14 5 14 0 0-5 4-4 8 6 12 16-5 10 8 0 5 5 9 9 6 2-1 5-1 5-1s-2 3-1 4c5 8 36-10 40-15 21-25 33-11 17-33 -12-17-8-11-27-7C557 629 543 610 530 621z" /><g class="mouth"><path d="M504 309c-64 1-44-3-65 5C463 310 476 316 504 309z" /><path d="M497 331c-14-4-49-5-46 4C461 332 510 338 497 331z" /></g><path class="helmet7" d="M545 117c-6 37-20 36-74 35 -53 2-68 2-74-34 -25 53-16 153-7 211 114-57 45-60 165 0 1-8 5-51 6-99C562 189 558 145 545 117z" /><g class="visor3 m"><polygon points="459 266 408 260 395 226 459 238 " /><polygon points="486 266 537 260 551 226 486 238 " /></g><g class="eyes4"><path d="M504 249c-2 9 30 7 30 1C523 233 513 235 504 249zM507 251c1 0 8-12 25 1C519 255 511 254 507 251z" /><path d="M420 251c0 6 32 8 30-1C441 236 431 234 420 251zM423 252c17-12 24 0 25 0C443 255 435 256 423 252z" /></g><polygon class="sh" points="550 345 471 367 471 164 556 215 " /><path class="fastener2 c b1" d="M482 385c12 5 77 29 77 16 0-4-7-47-7-47s-62 23-80 23c-18 0-77-23-77-23s-10 42-10 47c0 13 65-11 77-16 -74 121-111 91-67 120 40 26 61-64 78-98 16 34 38 124 78 98C593 475 556 505 482 385z" /></svg>