<svg viewBox="0 0 1000 1000" xmlns="http://www.w3.org/2000/svg"><title>Dazzling Red Mangolorian</title><style type="text/css"> .m {fill: #F0CD09;} .b {stroke: #000000; stroke-width: 10; stroke-linejoin: round;}.b1{stroke: #000000; stroke-width: 4; stroke-linejoin: round;}.sh {fill-opacity: 0.1;} .c{fill:#f05a09;} .bg{fill:White}</style><rect width="1000" height="1000" class="bg"/><path class="cape5 c b" d="M909 535c-61-327-1429-188-567 306 -11-6 207-128 282-88C648 565 925 620 909 535z" /><path class="mango m b" d="M551 355c0-163 21-147-78-146 -95 0-75-13-78 150 -80 50-141 75-150 169 -15 161 80 239 101 264 7 5 28 68 102 74C566 876 608 463 551 355z" /><path d="M709 496c-87-107-85-109-160-141 0 0-11 13-80 26 63 58-16 433 23 468 50 45 107-103 100-192 0-4 1-3 9-7 17-13 7-1 94-116C697 533 713 504 709 496zM662 510c-12 11-27 42-30 58 -14 20-23 38-38 43 -6 2-2 1-7-24 -9-59 13-95 25-133C637 488 670 500 662 510z" /><path class="hand9 m" d="M540 649c0 0-13 11 0 13 2 3 2 11 12 2 0 3-9 15-12 18 -5 6 0 11 5 5 4-3 8-6 10-10 7-10 23-16 30-21 7-5 14-3 7-22 -7-18-14-9-24-14 -9-5-30-18-32-17 -8 6 19 19 13 26 -8 10-30 16-38 26 -1 3 0 6 4 5C523 657 531 650 540 649z" /> <g class="mouth"><path d="M504 309c-64 1-44-3-65 5C463 310 476 316 504 309z" /><path d="M497 331c-14-4-49-5-46 4C461 332 510 338 497 331z" /></g><path class="helmet4" d="M546 138c-9 21-38-41-70-42s-67 62-75 42c-7-16-28 27-11 205l73 20V231c18 0 4 0 19 0v132l72-20C577 185 554 120 546 138z" /><g class="visor6 m"><path d="M408 236c-1-14 20-10 33-3C494 262 417 294 408 236z" /><path d="M544 236c1-14-20-10-33-3C458 262 534 294 544 236z" /></g><g class="eyes4"><path d="M504 249c-2 9 30 7 30 1C523 233 513 235 504 249zM507 251c1 0 8-12 25 1C519 255 511 254 507 251z" /><path d="M420 251c0 6 32 8 30-1C441 236 431 234 420 251zM423 252c17-12 24 0 25 0C443 255 435 256 423 252z" /></g><polygon class="sh" points="550 345 471 367 471 164 556 215 " /><path class="fastener3 c b1" d="M560 351c0-1-73 20-88 25 -15-5-93-25-94-24 -1 1-20 41-19 45 3 15 94-21 95-21 -77 125-108 97-65 124 45 29 63-90 83-116 71 97 41 139 83 108 44-32-63-116-64-116 1 0 90 36 94 20C586 393 561 352 560 351z" /></svg>