<svg viewBox="0 0 1000 1000" xmlns="http://www.w3.org/2000/svg"><title>Fruity Gray Mangolien</title><style type="text/css"> .m {fill: #F0CD09;} .b {stroke: #000000; stroke-width: 10; stroke-linejoin: round;}.b1{stroke: #000000; stroke-width: 4; stroke-linejoin: round;}.sh {fill-opacity: 0.1;} .c{fill:#808080;} .bg{fill:White}</style><rect width="1000" height="1000" class="bg"/><path class="cape7 c b" d="M966 703C656 704 624 332 517 406c-140 97 117 533 236 443C823 796 862 709 966 703z" /><path class="mango m b" d="M551 355c0-163 21-147-78-146 -95 0-75-13-78 150 -80 50-141 75-150 169 -15 161 80 239 101 264 7 5 28 68 102 74C566 876 608 463 551 355z" /><path d="M709 496c-87-107-85-109-160-141 0 0-11 13-80 26 63 58-16 433 23 468 50 45 107-103 100-192 0-4 1-3 9-7 17-13 7-1 94-116C697 533 713 504 709 496zM662 510c-12 11-27 42-30 58 -14 20-23 38-38 43 -6 2-2 1-7-24 -9-59 13-95 25-133C637 488 670 500 662 510z" /><path class="hand1 m" d="M575 622c-26 13-56 2-37 21 -26 12-32 12-29 18 2 3 4 3 8 2 4-1 15-4 20-7 -8 10 5 12 9 9 -5 4 0 12 8 8 -3 5 4 13 9 7 1-1 7-6 19-13 5-3 13-14 16-16C612 642 605 607 575 622z" /><g class="mouth"><path d="M504 309c-64 1-44-3-65 5C463 310 476 316 504 309z" /><path d="M497 331c-14-4-49-5-46 4C461 332 510 338 497 331z" /></g><path class="helmet2" d="M604 122c-16-23-51-2-40 23 2 5-8 10-16 18 -38-45-113-45-151 0 -7-8-18-13-16-18 12-25-24-46-40-23 -13 18 4 43 26 36 2-1 0-2 19 19 -15 31 4 151 4 150 120-59 42-59 163 0 1 2 18-131 4-150 19-21 17-20 19-19C600 165 617 141 604 122z" /><g class="visor3 m"><polygon points="459 266 408 260 395 226 459 238 " /><polygon points="486 266 537 260 551 226 486 238 " /></g><g class="eyes4"><path d="M504 249c-2 9 30 7 30 1C523 233 513 235 504 249zM507 251c1 0 8-12 25 1C519 255 511 254 507 251z" /><path d="M420 251c0 6 32 8 30-1C441 236 431 234 420 251zM423 252c17-12 24 0 25 0C443 255 435 256 423 252z" /></g><polygon class="sh" points="550 345 471 367 471 164 556 215 " /><path class="fastener3 c b1" d="M560 351c0-1-73 20-88 25 -15-5-93-25-94-24 -1 1-20 41-19 45 3 15 94-21 95-21 -77 125-108 97-65 124 45 29 63-90 83-116 71 97 41 139 83 108 44-32-63-116-64-116 1 0 90 36 94 20C586 393 561 352 560 351z" /></svg>