<svg viewBox="0 0 1000 1000" xmlns="http://www.w3.org/2000/svg"><title>Mouthwatering Pink Batmango</title><style type="text/css"> .m {fill: #F0CD09;} .b {stroke: #000000; stroke-width: 10; stroke-linejoin: round;}.b1{stroke: #000000; stroke-width: 4; stroke-linejoin: round;}.sh {fill-opacity: 0.1;} .c{fill:#f009a0;} .bg{fill:White}</style><rect width="1000" height="1000" class="bg"/><path class="cape1 c b" d="M742 445C639 419 591 345 472 344c-88-1-167 70-256 98 -291 94-51 261-6 381 9 22-5-42 166-3 45-4 209 2 250-21 41-21 84 6 118 12C784 696 1003 510 742 445z" /><path class="mango m b" d="M551 355c0-163 21-147-78-146 -95 0-75-13-78 150 -80 50-141 75-150 169 -15 161 80 239 101 264 7 5 28 68 102 74C566 876 608 463 551 355z" /><path d="M709 496c-87-107-85-109-160-141 0 0-11 13-80 26 63 58-16 433 23 468 50 45 107-103 100-192 0-4 1-3 9-7 17-13 7-1 94-116C697 533 713 504 709 496zM662 510c-12 11-27 42-30 58 -14 20-23 38-38 43 -6 2-2 1-7-24 -9-59 13-95 25-133C637 488 670 500 662 510z" /><path class="hand0 m" d="M570 628c-39 14-59-16-56 5 2 9 12 12 19 10 -13 3-23 28-7 22 -9 4 4 12 8 7 -6 7 6 13 7 7 -5 26 39-18 46-23C603 652 583 615 570 628z" /><g class="mouth"><path d="M504 309c-64 1-44-3-65 5C463 310 476 316 504 309z" /><path d="M497 331c-14-4-49-5-46 4C461 332 510 338 497 331z" /></g><path class="helmet9" d="M534 117c-3 45-22 48-65 25 -45 25-65 22-72-25 -32 67-7 213-7 213 121-60 44-60 165 0C558 327 574 140 534 117z" /> <g class="visor8 m"><path d="M463 235c-25 66-63 2-63 2S463 235 463 235z" /><path d="M551 237c0 0-38 64-63-2C488 235 551 237 551 237z" /></g><g class="eyes2"><path d="M450 250c-9-14-19-16-30 1C420 257 452 259 450 250zM429 248c12 8 10-7 19 4C443 255 413 255 429 248z" /><path d="M534 251c-11-17-21-15-30-1C502 259 534 257 534 251zM507 252c8-11 7 5 19-4C541 255 511 255 507 252z" /></g><polygon class="sh" points="550 345 471 367 471 164 556 215 " /><path class="fastener3 c b1" d="M560 351c0-1-73 20-88 25 -15-5-93-25-94-24 -1 1-20 41-19 45 3 15 94-21 95-21 -77 125-108 97-65 124 45 29 63-90 83-116 71 97 41 139 83 108 44-32-63-116-64-116 1 0 90 36 94 20C586 393 561 352 560 351z" /></svg>