<svg viewBox="0 0 1000 1000" xmlns="http://www.w3.org/2000/svg"><title>Outstanding Cyan Hatmango</title><style type="text/css"> .m {fill: #F0CD09;} .b {stroke: #000000; stroke-width: 10; stroke-linejoin: round;}.b1{stroke: #000000; stroke-width: 4; stroke-linejoin: round;}.sh {fill-opacity: 0.1;} .c{fill:#09f0cd;} .bg{fill:White}</style><rect width="1000" height="1000" class="bg"/><path class="cape5 c b" d="M909 535c-61-327-1429-188-567 306 -11-6 207-128 282-88C648 565 925 620 909 535z" /><path class="mango m b" d="M551 355c0-163 21-147-78-146 -95 0-75-13-78 150 -80 50-141 75-150 169 -15 161 80 239 101 264 7 5 28 68 102 74C566 876 608 463 551 355z" /><path d="M709 496c-87-107-85-109-160-141 0 0-11 13-80 26 63 58-16 433 23 468 50 45 107-103 100-192 0-4 1-3 9-7 17-13 7-1 94-116C697 533 713 504 709 496zM662 510c-12 11-27 42-30 58 -14 20-23 38-38 43 -6 2-2 1-7-24 -9-59 13-95 25-133C637 488 670 500 662 510z" /><path class="hand0 m" d="M570 628c-39 14-59-16-56 5 2 9 12 12 19 10 -13 3-23 28-7 22 -9 4 4 12 8 7 -6 7 6 13 7 7 -5 26 39-18 46-23C603 652 583 615 570 628z" /><g class="mouth"><path d="M504 309c-64 1-44-3-65 5C463 310 476 316 504 309z" /><path d="M497 331c-14-4-49-5-46 4C461 332 510 338 497 331z" /></g><path class="helmet6" d="M534 117c-2 21-10 33-20 37 -6-5 6-46 6-50 0-1 13-16-56-16 -29 0-53 7-53 23 0 4 12 37 12 44 -13 3-22-18-25-38 -32 67-7 213-7 213 121-60 44-60 165 0C558 327 575 140 534 117z" /><g class="visor5 m"><path d="M461 262c-14 1-27 2-41 3 -7-11-15-23-22-34 19 2 38 4 57 4C457 244 459 253 461 262z" /><path d="M488 262c14 1 27 2 41 3 7-11 15-23 22-34 -19 2-38 4-57 4C492 244 490 253 488 262z" /></g><g class="eyes4"><path d="M504 249c-2 9 30 7 30 1C523 233 513 235 504 249zM507 251c1 0 8-12 25 1C519 255 511 254 507 251z" /><path d="M420 251c0 6 32 8 30-1C441 236 431 234 420 251zM423 252c17-12 24 0 25 0C443 255 435 256 423 252z" /></g><polygon class="sh" points="550 345 471 367 471 164 556 215 " /><path class="fastener2 c b1" d="M482 385c12 5 77 29 77 16 0-4-7-47-7-47s-62 23-80 23c-18 0-77-23-77-23s-10 42-10 47c0 13 65-11 77-16 -74 121-111 91-67 120 40 26 61-64 78-98 16 34 38 124 78 98C593 475 556 505 482 385z" /></svg>