<svg viewBox="0 0 1000 1000" xmlns="http://www.w3.org/2000/svg"><title>Phenomenal Red Mangoni</title><style type="text/css"> .m {fill: #F0CD09;} .b {stroke: #000000; stroke-width: 10; stroke-linejoin: round;}.b1{stroke: #000000; stroke-width: 4; stroke-linejoin: round;}.sh {fill-opacity: 0.1;} .c{fill:#f05a09;} .bg{fill:Honeydew}</style><rect width="1000" height="1000" class="bg"/><path class="cape6 c b" d="M155 787c230 66 511-190 720-87 250 123-201-226-257-278C428 265 456 310 242 543 56 797 36 753 155 787z" /><path class="mango m b" d="M551 355c0-163 21-147-78-146 -95 0-75-13-78 150 -80 50-141 75-150 169 -15 161 80 239 101 264 7 5 28 68 102 74C566 876 608 463 551 355z" /><path d="M709 496c-87-107-85-109-160-141 0 0-11 13-80 26 63 58-16 433 23 468 50 45 107-103 100-192 0-4 1-3 9-7 17-13 7-1 94-116C697 533 713 504 709 496zM662 510c-12 11-27 42-30 58 -14 20-23 38-38 43 -6 2-2 1-7-24 -9-59 13-95 25-133C637 488 670 500 662 510z" /><path class="hand6 m" d="M539 634c-8 11-20 17-28 28 -3 3 1 7 4 4 40-32 11 2 7 11 2 15 12-8 21-21 1 5 4 10 10 4 3 8 3 7 7 5 41-21 42-16 31-37 -9-18-56-1-71-10C512 625 536 630 539 634z" /><g class="mouth"><path d="M504 309c-64 1-44-3-65 5C463 310 476 316 504 309z" /><path d="M497 331c-14-4-49-5-46 4C461 332 510 338 497 331z" /></g><path class="helmet3" d="M556 120c-5 45-37 54-81 31 -47 25-85 16-94-31 -30 61 15 210 15 210 54-20 67-38 77-38 11-1 21 16 78 39C552 328 598 137 556 120z" /><g class="visor0 m"><polygon points="517 218 544 264 491 265 " /><polygon points="435 218 462 264 409 265 " /></g><g class="eyes3"><path d="M504 249c-2 9 30 7 30 1C523 233 513 235 504 249zM519 248c-2 0-2-3 0-3C521 245 521 248 519 248z" /><path d="M450 250c-9-14-19-16-30 1C420 257 452 259 450 250zM435 249c-2 0-2-3 0-3C437 246 437 249 435 249z" /></g><polygon class="sh" points="550 345 471 367 471 164 556 215 " /><path class="fastener1 c b1" d="M472 377c-21-6-91-25-97-20 -6 5 5 41 5 43 0 14 73-14 77-16l-95 120c0 0 28 0 28 0 4 0 66-83 83-106 17 23 71 106 75 106 0 0 28 0 28 0l-88-120c0 0 50 19 69 19 2 0 17-40 10-48C558 347 492 371 472 377z" /></svg>