<svg viewBox="0 0 1000 1000" xmlns="http://www.w3.org/2000/svg"><title>Quirky Gray Pirate Mangoth</title><style type="text/css"> .m {fill: #F0CD09;} .b {stroke: #000000; stroke-width: 10; stroke-linejoin: round;}.b1{stroke: #000000; stroke-width: 4; stroke-linejoin: round;}.sh {fill-opacity: 0.1;} .c{fill:#808080;} .bg{fill:White}</style><rect width="1000" height="1000" class="bg"/><path class="cape4 c b" d="M138 909c0 66 1060-400 400-552 -16 5-75-15-76-5C438 709 138 876 138 909z" /><path class="mango m b" d="M551 355c0-163 21-147-78-146 -95 0-75-13-78 150 -80 50-141 75-150 169 -15 161 80 239 101 264 7 5 28 68 102 74C566 876 608 463 551 355z" /><path d="M709 496c-87-107-85-109-160-141 0 0-11 13-80 26 63 58-16 433 23 468 50 45 107-103 100-192 0-4 1-3 9-7 17-13 7-1 94-116C697 533 713 504 709 496zM662 510c-12 11-27 42-30 58 -14 20-23 38-38 43 -6 2-2 1-7-24 -9-59 13-95 25-133C637 488 670 500 662 510z" /><path class="hand1 m" d="M575 622c-26 13-56 2-37 21 -26 12-32 12-29 18 2 3 4 3 8 2 4-1 15-4 20-7 -8 10 5 12 9 9 -5 4 0 12 8 8 -3 5 4 13 9 7 1-1 7-6 19-13 5-3 13-14 16-16C612 642 605 607 575 622z" /><g class="mouth"><path d="M504 309c-64 1-44-3-65 5C463 310 476 316 504 309z" /><path d="M497 331c-14-4-49-5-46 4C461 332 510 338 497 331z" /></g><path class="helmet0" d="M570 251L554 100l-66 51c-29-12-10-13-37-1l-67-50L371 251c23 74 26 85 26 85l74-47 79 47C550 336 554 318 570 251z" /><g class="visor4 m"><path d="M461 263c-41 5-42 6-63-31C427 238 462 222 461 263z" /><path d="M488 263c41 5 42 6 63-31C522 238 487 222 488 263z" /></g><g class="eyes4"><path d="M504 249c-2 9 30 7 30 1C523 233 513 235 504 249zM507 251c1 0 8-12 25 1C519 255 511 254 507 251z" /><path d="M420 251c0 6 32 8 30-1C441 236 431 234 420 251zM423 252c17-12 24 0 25 0C443 255 435 256 423 252z" /></g><path class="pch0" d="M509 240c-27-17-26-12-23-17 8 4 18 9 27 14 9-1 22 6 22 14 4 3 18 14 23 17 -3 6 1 6-25-13C523 272 492 258 509 240z" /><polygon class="sh" points="550 345 471 367 471 164 556 215 " /><path class="fastener5 c b1" d="M474 370c-22 3-57-14-99-19l10 55c0 0 74-21 74-21C385 506 364 497 364 497s32 16 64-29c18-22 38-65 46-78 9 8 28 20 46 47 18 24 34 65 37 61 0 0 5-4 10-6 5-3 9-4 9-4 -29-49-36-82-86-112 22-8 46 0 69 10l7-34C529 347 490 358 474 370z" /></svg>