<svg viewBox="0 0 1000 1000" xmlns="http://www.w3.org/2000/svg"><title>Sassy Golden Mangostein</title><style type="text/css"> .m {fill: #F0CD09;} .b {stroke: #000000; stroke-width: 10; stroke-linejoin: round;}.b1{stroke: #000000; stroke-width: 4; stroke-linejoin: round;}.sh {fill-opacity: 0.1;} .c{fill:#ffd700;} .bg{fill:Lightyellow}</style><rect width="1000" height="1000" class="bg"/><path class="cape6 c b" d="M155 787c230 66 511-190 720-87 250 123-201-226-257-278C428 265 456 310 242 543 56 797 36 753 155 787z" /><path class="mango m b" d="M551 355c0-163 21-147-78-146 -95 0-75-13-78 150 -80 50-141 75-150 169 -15 161 80 239 101 264 7 5 28 68 102 74C566 876 608 463 551 355z" /><path d="M709 496c-87-107-85-109-160-141 0 0-11 13-80 26 63 58-16 433 23 468 50 45 107-103 100-192 0-4 1-3 9-7 17-13 7-1 94-116C697 533 713 504 709 496zM662 510c-12 11-27 42-30 58 -14 20-23 38-38 43 -6 2-2 1-7-24 -9-59 13-95 25-133C637 488 670 500 662 510z" /><path class="hand9 m" d="M540 649c0 0-13 11 0 13 2 3 2 11 12 2 0 3-9 15-12 18 -5 6 0 11 5 5 4-3 8-6 10-10 7-10 23-16 30-21 7-5 14-3 7-22 -7-18-14-9-24-14 -9-5-30-18-32-17 -8 6 19 19 13 26 -8 10-30 16-38 26 -1 3 0 6 4 5C523 657 531 650 540 649z" /> <g class="mouth"><path d="M504 309c-64 1-44-3-65 5C463 310 476 316 504 309z" /><path d="M497 331c-14-4-49-5-46 4C461 332 510 338 497 331z" /></g><path class="helmet5" d="M558 113c0 0-43 41-87 43 -44-1-91-42-90-41 0 0-13 127-9 160 4 32 20 74 20 74 0 0 40-67 80-67 41-1 82 70 82 69 0 0 14-43 16-76C573 242 558 113 558 113z" /><g class="visor4 m"><path d="M461 263c-41 5-42 6-63-31C427 238 462 222 461 263z" /><path d="M488 263c41 5 42 6 63-31C522 238 487 222 488 263z" /></g><g class="eyes4"><path d="M504 249c-2 9 30 7 30 1C523 233 513 235 504 249zM507 251c1 0 8-12 25 1C519 255 511 254 507 251z" /><path d="M420 251c0 6 32 8 30-1C441 236 431 234 420 251zM423 252c17-12 24 0 25 0C443 255 435 256 423 252z" /></g><polygon class="sh" points="550 345 471 367 471 164 556 215 " /><path class="fastener6 c b1" d="M473 379c-47-1-96-67-100-3 -1 21 89 13 84 10 -1 2-61 27-100 98 -2 4 90-58 116-86 32 35 115 86 111 79 -33-61-91-87-95-90 -8 4 86 11 86-11C576 309 524 380 473 379z" /></svg>