<svg viewBox="0 0 1000 1000" xmlns="http://www.w3.org/2000/svg"><title>Tasty Orange Catmango</title><style type="text/css"> .m {fill: #F0CD09;} .b {stroke: #000000; stroke-width: 10; stroke-linejoin: round;}.b1{stroke: #000000; stroke-width: 4; stroke-linejoin: round;}.sh {fill-opacity: 0.1;} .c{fill:#ffa500;} .bg{fill:White}</style><rect width="1000" height="1000" class="bg"/><path class="cape9 c b" d="M827 753c-194-18-163-392-319-392 -194 0-366 176-277 413C341 537 678 766 827 753z" /><path class="mango m b" d="M551 355c0-163 21-147-78-146 -95 0-75-13-78 150 -80 50-141 75-150 169 -15 161 80 239 101 264 7 5 28 68 102 74C566 876 608 463 551 355z" /><path d="M709 496c-87-107-85-109-160-141 0 0-11 13-80 26 63 58-16 433 23 468 50 45 107-103 100-192 0-4 1-3 9-7 17-13 7-1 94-116C697 533 713 504 709 496zM662 510c-12 11-27 42-30 58 -14 20-23 38-38 43 -6 2-2 1-7-24 -9-59 13-95 25-133C637 488 670 500 662 510z" /><path class="hand9 m" d="M540 649c0 0-13 11 0 13 2 3 2 11 12 2 0 3-9 15-12 18 -5 6 0 11 5 5 4-3 8-6 10-10 7-10 23-16 30-21 7-5 14-3 7-22 -7-18-14-9-24-14 -9-5-30-18-32-17 -8 6 19 19 13 26 -8 10-30 16-38 26 -1 3 0 6 4 5C523 657 531 650 540 649z" /> <g class="mouth"><path d="M504 309c-64 1-44-3-65 5C463 310 476 316 504 309z" /><path d="M497 331c-14-4-49-5-46 4C461 332 510 338 497 331z" /></g><path class="helmet8" d="M564 180c-3-34-6-63-7-63 -57 56-121 51-177 2 0 0-3 27-5 59 -51 75 8 152 17 158 10-24 63-40 80-40 24 0 70 16 81 42C572 326 612 241 564 180z" /><g class="visor5 m"><path d="M461 262c-14 1-27 2-41 3 -7-11-15-23-22-34 19 2 38 4 57 4C457 244 459 253 461 262z" /><path d="M488 262c14 1 27 2 41 3 7-11 15-23 22-34 -19 2-38 4-57 4C492 244 490 253 488 262z" /></g><g class="eyes1"><path d="M504 249c-2 9 30 7 30 1C523 233 513 235 504 249zM507 251c1 0 7-3 25 1C519 255 511 254 507 251z" /><path d="M420 251c0 6 32 8 30-1C441 236 431 234 420 251zM423 252c12-5 25 0 25 0S435 256 423 252z" /></g><polygon class="sh" points="550 345 471 367 471 164 556 215 " /><path class="fastener9 c b1" d="M557 506C455 494 524 441 473 401c-53 42 21 92-83 105 0 0 0-1 0-1 0-2 1-3 3-3 33-8 43-17 43-28 0-18-31-38-31-58 0-9 6-17 25-25-30 10-53 14-71 14-22 0-34-6-34-15 0-13 74-32 74-32s56 20 74 20c16 0 73-19 73-19s77 21 77 34c0 7-8 12-28 12-17 0-42-4-78-14 20 10 26 19 26 28 0 19-31 35-31 53 0 11 11 22 48 35H557z" /></svg>